# AST/ASF file generated using VICON BodyLanguage
# -----------------------------------------------
:version 1.10
:name VICON
:units
  mass 1.0
  length 0.45
  angle deg
:documentation
   .ast/.asf automatically generated from VICON data using
   VICON BodyBuilder and BodyLanguage model FoxedUp or BRILLIANT.MOD
:root
   order TX TY TZ RX RY RZ
   axis XYZ
   position 0 0 0  
   orientation 0 0 0 
:bonedata
  begin
     id 1 
     name lhipjoint
     direction 0.714689 -0.624256 0.315473 
     length 2.45343 
     axis 0 0 0  XYZ
  end
  begin
     id 2 
     name lfemur
     direction 0.34202 -0.939693 0  
     length 6.59069  
     axis 0 0 20  XYZ
    dof rx ry rz
    limits (-160.0 20.0)
           (-70.0 70.0)
           (-60.0 70.0)
  end
  begin
     id 3 
     name ltibia
     direction 0.34202 -0.939693 0   
     length 6.73476   
     axis 0 0 20   XYZ
    dof rx
    limits (-10.0 170.0)
  end
  begin
     id 4 
     name lfoot
     direction 0.0718085 -0.197292 0.977711   
     length 1.52607   
     axis -90 7.62852e-016 20   XYZ
    dof rx rz
    limits (-45.0 90.0)
           (-70.0 20.0)
  end
  begin
     id 5 
     name ltoes
     direction 1.53553e-011 -4.22024e-011 1   
     length 0.777832   
     axis -90 7.62852e-016 20   XYZ
    dof rx
    limits (-90.0 20.0)
  end
  begin
     id 6 
     name rhipjoint
     direction -0.727419 -0.612432 0.309497   
     length 2.50079  
     axis 0 0 0  XYZ 
  end
  begin
     id 7 
     name rfemur
     direction -0.34202 -0.939693 0   
     length 6.51665   
     axis 0 0 -20   XYZ
    dof rx ry rz
    limits (-160.0 20.0)
           (-70.0 70.0)
           (-70.0 60.0)
  end
  begin
     id 8 
     name rtibia
     direction -0.34202 -0.939693 0   
     length 6.48919   
     axis 0 0 -20   XYZ
    dof rx
    limits (-10.0 170.0)
 end
 begin
     id 9 
     name rfoot
     direction -0.112205 -0.308282 0.944655   
     length 1.68717  
     axis -90 -7.62852e-016 -20   XYZ
    dof rx rz
    limits (-45.0 90.0)
           (-20.0 70.0)
  end
  begin
     id 10 
     name rtoes
     direction -1.53583e-011 -4.21993e-011 1   
     length 0.846859   
     axis -90 -7.62852e-016 -20   XYZ
    dof rx
    limits (-90.0 20.0)
  end
  begin
     id 11 
     name lowerback
     direction -0.00119603 0.996364 -0.0851956   
     length 1.67242   
     axis 0 0 0   XYZ
    dof rx ry rz
    limits (-20.0 45.0)
           (-30.0 30.0)
           (-30.0 30.0)
  end
  begin
     id 12 
     name upperback
     direction -0.00531001 0.998318 0.0577248   
     length 1.64819   
     axis 0 0 0   XYZ
    dof rx ry rz
    limits (-20.0 45.0)
           (-30.0 30.0)
           (-30.0 30.0)
  end
  begin
     id 13 
     name thorax
     direction -0.00653676 0.995132 0.0983291   
     length 1.67429   
     axis 0 0 0   XYZ
    dof rx ry rz
    limits (-20.0 45.0)
           (-30.0 30.0)
           (-30.0 30.0)
  end
  begin
     id 14 
     name lowerneck
     direction 0.0141424 0.999886 0.00525412   
     length 1.59623   
     axis 0 0 0   XYZ
    dof rx ry rz
    limits (-20.0 45.0)
           (-30.0 30.0)
           (-30.0 30.0)
  end
  begin
     id 15 
     name upperneck
     direction -0.0640064 0.987178 -0.146232   
     length 1.59576   
     axis 0 0 0   XYZ
    dof rx ry rz
    limits (-20.0 45.0)
           (-30.0 30.0)
           (-30.0 30.0)
  end
  begin
     id 16
     name head
     direction -0.0222942 0.998496 -0.0500859  
     length 1.60959  
     axis 0 0 0   XYZ
    dof rx ry rz
    limits (-20.0 45.0)
           (-30.0 30.0)
           (-30.0 30.0)
  end
  begin
     id 17 
     name lclavicle
     direction 0.908549 0.392612 0.142806  
     length 2.80649  
     axis 0 0 0   XYZ
    dof ry rz
    limits (-20.0 10.0)
           (0.0 20.0)
  end
  begin
     id 18 
     name lhumerus
     direction 1 -4.48968e-011 1.08832e-028   
     length 4.2884   
     axis -180 -30 -90   XYZ
    dof rx ry rz
    limits (-60.0 90.0)
           (-90.0 90.0)
           (-90.0 90.0)
  end
  begin
     id 19
     name lradius
     direction 1 -4.48952e-011 -3.02642e-028   
     length 3.06552   
     axis -180 -30 -90   XYZ
    dof rx
    limits (-10.0 170.0)
  end
  begin
     id 20
     name lwrist
     direction 1 -4.49014e-011 1.58672e-027   
     length 1.53276   
     axis -1.65735e-015 90 90   XYZ
    dof ry
    limits (-180.0 0.0)
 end
  begin
     id 21 
     name lhand
     direction 1 -4.48928e-011 3.17344e-027   
     length 0.753045   
     axis -2.02492e-015 90 90   XYZ
    dof rx rz
    limits (-90.0 90.0)
           (-45.0 45.0)
  end
  begin
     id 22 
     name lfingers
     direction 1 -4.48958e-011 6.34687e-027   
     length 0.607124   
     axis -4.04985e-015 90 90   XYZ
    dof rx
    limits (0.0 90.0)
  end
  begin
     id 23
     name lthumb
     direction 0.707107 -6.34905e-011 0.707107   
     length 0.871712   
     axis -90 45 2.85299e-015   XYZ
    dof rx rz
    limits (-45.0 45.0)
           (-45.0 45.0)
  end
  begin
     id 24 
     name rclavicle
     direction -0.885098 0.45949 0.0739604   
     length 2.9478  
     axis 0 0 0   XYZ 
    dof ry rz
    limits (-10.0 20.0)
           (-20.0 0.0)
  end
  begin
     id 25 
     name rhumerus
     direction -1 -4.4898e-011 -2.61739e-027  
     length 4.52172   
     axis -180 30 90   XYZ
    dof rx ry rz
    limits (-90.0 60.0)
           (-90.0 90.0)
           (-90.0 90.0)
  end
  begin
     id 26 
     name rradius
     direction -1 -4.48945e-011 9.02552e-028   
     length 2.8914   
     axis -180 30 90   XYZ
    dof rx
    limits (-10.0 170.0)
  end
  begin
     id 27 
     name rwrist
     direction -1 -4.49018e-011 1.58672e-027   
     length 1.4457   
     axis -1.65735e-015 -90 -90   XYZ
    dof ry
    limits (-180.0 0.0)
  end
  begin
     id 28
     name rhand
     direction -1 -4.48825e-011 3.17344e-027   
     length 0.680541   
     axis -2.02492e-015 -90 -90   XYZ
    dof rx rz
    limits (-90.0 90.0)
           (-45.0 45.0)
  end
  begin
     id 29
     name rfingers
     direction -1 -4.49067e-011 6.34687e-027   
     length 0.54867   
     axis -4.04985e-015 -90 -90   XYZ
    dof rx
    limits (0.0 90.0)
  end
  begin
     id 30
     name rthumb
     direction -0.707107 -6.34833e-011 0.707107   
     length 0.787783   
     axis -90 -45 -2.85299e-015   XYZ
    dof rx rz
    limits (-45.0 45.0)
           (-45.0 45.0)
  end
:hierarchy
  begin
    root lhipjoint rhipjoint lowerback
    lhipjoint lfemur
    lfemur ltibia
    ltibia lfoot
    lfoot ltoes
    rhipjoint rfemur
    rfemur rtibia
    rtibia rfoot
    rfoot rtoes
    lowerback upperback
    upperback thorax
    thorax lowerneck lclavicle rclavicle
    lowerneck upperneck
    upperneck head
    lclavicle lhumerus
    lhumerus lradius
    lradius lwrist
    lwrist lhand lthumb
    lhand lfingers
    rclavicle rhumerus
    rhumerus rradius
    rradius rwrist
    rwrist rhand rthumb
    rhand rfingers
  end

#!OML:ASF E:\emotionWalksFemale\Project 1\Capture day 1\Session 1\Female1.ASF
:FULLY-SPECIFIED
:DEGREES
173
root 8.73784 12.1738 23.9353 -137.416 -2.52191 -179.486
lowerback 39.5398 0.813149 1.08271
upperback 1.55485 0.506047 -0.37911
thorax -17.8952 -0.267087 -1.12684
lowerneck -12.2011 -2.18551 -5.80285
upperneck -21.9153 -4.37349 8.15976
head -4.34984 -3.59965 3.66547
rclavicle -1.42131e-014 -1.88845e-015
rhumerus 7.24423 51.9876 -33.0611
rradius 82.2933
rwrist 1.94917
rhand -21.1936 -52.6644
rfingers 7.12502
rthumb 5.18742 -82.5809
lclavicle -1.42131e-014 -1.88845e-015
lhumerus -30.7127 -37.3023 62.033
lradius 81.9716
lwrist 19.1929
lhand -27.6113 -62.2788
lfingers 7.12502
lthumb -1.01048 -32.3015
rfemur -94.1774 -1.3341 29.2896
rtibia 88.6371
rfoot -35.9778 -16.4128
rtoes -7.01839
lfemur -97.1848 -0.225568 -24.0256
ltibia 87.0738
lfoot -36.7566 0.825634
ltoes -39.7131
174
root 8.7414 12.1443 23.9064 -137.299 -2.53624 -179.57
lowerback 39.8668 0.815892 1.03788
upperback 1.46914 0.488514 -0.413044
thorax -18.1263 -0.273797 -1.13411
lowerneck -12.0878 -2.18499 -5.75003
upperneck -21.9734 -4.37092 8.16193
head -4.38582 -3.60194 3.66184
rclavicle 9.64106e-015 8.44835e-015
rhumerus 7.63386 52.8816 -31.8711
rradius 82.5401
rwrist 1.72224
rhand -20.1108 -52.4414
rfingers 7.12502
rthumb 6.2328 -82.3297
lclavicle 9.64106e-015 8.44835e-015
lhumerus -32.0243 -38.7962 61.9808
lradius 81.7646
lwrist 19.1184
lhand -27.0383 -62.0121
lfingers 7.12502
lthumb -0.457045 -32.0328
rfemur -94.4136 -1.32712 29.2943
rtibia 89.0606
rfoot -36.0821 -16.3453
rtoes -5.32279
lfemur -97.4389 -0.134428 -24.3608
ltibia 87.446
lfoot -36.8992 0.90172
ltoes -39.9984
175
root 8.74186 12.1148 23.8807 -137.252 -2.58533 -179.717
lowerback 40.241 0.790956 1.13636
upperback 1.43668 0.487604 -0.456145
thorax -18.3056 -0.289053 -1.23457
lowerneck -12.0061 -2.25699 -5.82651
upperneck -22.039 -4.45721 8.15925
head -4.41165 -3.63845 3.67704
rclavicle -1.0138e-014 -4.57205e-015
rhumerus 8.32833 53.631 -30.0463
rradius 82.8076
rwrist 1.24843
rhand -19.057 -52.0342
rfingers 7.12502
rthumb 7.25016 -81.89
lclavicle -1.0138e-014 -4.57205e-015
lhumerus -33.4647 -40.2145 62.1852
lradius 81.6187
lwrist 18.8917
lhand -26.9712 -62.0446
lfingers 7.12502
lthumb -0.3923 -32.0652
rfemur -94.6521 -1.49663 29.3902
rtibia 89.541
rfoot -36.2938 -16.1394
rtoes -3.64388
lfemur -97.6295 -0.122772 -24.7573
ltibia 87.8232
lfoot -37.1065 1.16581
ltoes -40.4984
176
root 8.74755 12.102 23.8638 -137.053 -2.49503 -179.71
lowerback 40.4441 0.894818 1.01179
upperback 1.42144 0.559766 -0.455336
thorax -18.3999 -0.252596 -1.20332
lowerneck -12.0856 -2.28071 -5.94134
upperneck -22.1739 -4.49911 8.17808
head -4.43716 -3.66758 3.70647
rclavicle 2.98177e-015 1.22253e-014
rhumerus 9.08592 54.3082 -28.2162
rradius 83.0913
rwrist 0.838692
rhand -18.8557 -51.6892
rfingers 7.12502
rthumb 7.44448 -81.5382
lclavicle 2.98177e-015 1.22253e-014
lhumerus -35.2618 -41.1135 62.8294
lradius 81.4076
lwrist 18.2237
lhand -27.0155 -62.3933
lfingers 7.12502
lthumb -0.435029 -32.414
rfemur -94.9599 -1.40482 29.5413
rtibia 89.8333
rfoot -36.327 -16.0854
rtoes -2.7218
lfemur -97.897 0.122694 -25.0559
ltibia 88.0845
lfoot -37.1675 1.07629
ltoes -40.5173
177
root 8.75656 12.0845 23.8402 -136.885 -2.39091 -179.633
lowerback 40.6139 1.04338 0.799876
upperback 1.43036 0.650039 -0.423209
thorax -18.4525 -0.201336 -1.0989
lowerneck -12.1263 -2.29648 -5.99388
upperneck -22.3938 -4.54781 8.20075
head -4.49595 -3.71374 3.73141
rclavicle -8.15017e-015 -1.31198e-014
rhumerus 9.4977 55.0644 -26.8326
rradius 83.3955
rwrist 0.407143
rhand -19.0937 -51.2987
rfingers 7.12502
rthumb 7.21473 -81.1558
lclavicle -8.15017e-015 -1.31198e-014
lhumerus -36.5406 -42.4198 62.6875
lradius 81.2346
lwrist 18.2786
lhand -26.6474 -62.0335
lfingers 7.12502
lthumb -0.0795001 -32.0538
rfemur -95.1891 -1.25564 29.7832
rtibia 90.1076
rfoot -36.2675 -16.215
rtoes -2.56392
lfemur -98.1349 0.458853 -25.3092
ltibia 88.3853
lfoot -37.2205 1.21185
ltoes -40.9979
178
root 8.76196 12.0604 23.8132 -136.603 -2.65136 -179.645
lowerback 40.6446 0.987846 0.965649
upperback 1.41469 0.679267 -0.337495
thorax -18.4809 -0.197441 -1.10524
lowerneck -12.0134 -2.36286 -6.08514
upperneck -22.6275 -4.65031 8.21891
head -4.57765 -3.7763 3.7645
rclavicle 5.56597e-015 5.96354e-016
rhumerus 9.85769 55.8766 -25.2295
rradius 83.856
rwrist -0.158536
rhand -18.8887 -51.3671
rfingers 7.12502
rthumb 7.41259 -81.2172
lclavicle 5.56597e-015 5.96354e-016
lhumerus -38.1975 -43.4333 63.0387
lradius 81.062
lwrist 17.9835
lhand -25.5357 -60.9206
lfingers 7.12502
lthumb 0.99419 -30.9432
rfemur -95.5389 -1.39304 30.131
rtibia 90.3963
rfoot -36.3343 -16.2099
rtoes -1.75553
lfemur -98.526 0.437292 -25.3919
ltibia 88.6647
lfoot -37.2957 1.44223
ltoes -41.6878
179
root 8.76723 12.0316 23.7814 -136.491 -2.77874 -179.675
lowerback 40.8157 0.940569 0.972908
upperback 1.4283 0.617546 -0.323601
thorax -18.5284 -0.226122 -1.06203
lowerneck -12.1682 -2.30588 -6.08022
upperneck -22.6241 -4.57269 8.28112
head -4.55646 -3.74852 3.78116
rclavicle -1.61016e-014 -5.76476e-015
rhumerus 10.7708 56.7178 -23.2568
rradius 84.2789
rwrist -0.484717
rhand -18.0612 -51.5238
rfingers 7.12502
rthumb 8.21127 -81.3443
lclavicle -1.61016e-014 -5.76476e-015
lhumerus -40.1353 -44.1336 63.4285
lradius 80.9805
lwrist 17.878
lhand -24.4155 -59.9857
lfingers 7.12502
lthumb 2.07607 -30.0161
rfemur -95.7357 -1.32779 30.1699
rtibia 90.7609
rfoot -36.4359 -16.6007
rtoes -1.57855
lfemur -98.7333 0.49235 -25.5266
ltibia 89.0251
lfoot -37.4656 1.23047
ltoes -41.3639
180
root 8.77041 11.9983 23.7469 -136.422 -2.86532 -179.731
lowerback 41.0103 0.895305 0.855047
upperback 1.43966 0.498165 -0.311179
thorax -18.5901 -0.268706 -0.924963
lowerneck -12.3297 -2.16615 -5.90622
upperneck -22.5814 -4.40312 8.28645
head -4.53339 -3.68382 3.7507
rclavicle -6.16232e-015 1.11816e-014
rhumerus 11.8953 57.638 -21.059
rradius 84.6937
rwrist -0.712657
rhand -17.1105 -51.296
rfingers 7.12502
rthumb 9.12873 -81.0784
lclavicle -6.16232e-015 1.11816e-014
lhumerus -42.1937 -44.7565 63.772
lradius 80.8641
lwrist 17.9598
lhand -24.1952 -59.9348
lfingers 7.12502
lthumb 2.28887 -29.9673
rfemur -95.9258 -1.13922 30.0139
rtibia 91.1861
rfoot -36.6617 -17.0318
rtoes -1.20431
lfemur -98.9008 0.544735 -25.6918
ltibia 89.4056
lfoot -37.6421 0.87076
ltoes -40.6755
181
root 8.77142 11.9772 23.7157 -136.183 -2.95706 -179.794
lowerback 40.9511 0.890482 0.936862
upperback 1.40905 0.542513 -0.307218
thorax -18.6049 -0.253082 -0.987473
lowerneck -12.1669 -2.2274 -5.82011
upperneck -22.7201 -4.50531 8.21739
head -4.59902 -3.74239 3.72244
rclavicle -3.77691e-015 2.98177e-016
rhumerus 12.1118 58.6207 -19.1689
rradius 85.3216
rwrist -1.29282
rhand -16.3425 -51.0642
rfingers 7.12502
rthumb 9.86969 -80.8129
lclavicle -3.77691e-015 2.98177e-016
lhumerus -44.3481 -45.5272 64.4071
lradius 80.6552
lwrist 17.6232
lhand -24.3787 -60.5243
lfingers 7.12502
lthumb 2.11164 -30.555
rfemur -96.2478 -1.16309 30.0618
rtibia 91.5357
rfoot -36.7636 -17.1006
rtoes -0.943179
lfemur -99.1597 0.527238 -25.8256
ltibia 89.6546
lfoot -37.8614 0.311099
ltoes -39.486
182
root 8.77446 11.9729 23.6935 -135.908 -2.98855 -179.813
lowerback 40.8463 0.96745 1.07946
upperback 1.39108 0.720242 -0.298272
thorax -18.5825 -0.187802 -1.1431
lowerneck -12.024 -2.4088 -5.87885
upperneck -22.8781 -4.76579 8.11031
head -4.65662 -3.86579 3.70538
rclavicle -3.18055e-015 -6.75868e-015
rhumerus 12.2293 59.5678 -17.1448
rradius 85.8679
rwrist -2.04967
rhand -15.9746 -50.7913
rfingers 7.12502
rthumb 10.2247 -80.5228
lclavicle -3.18055e-015 -6.75868e-015
lhumerus -46.4439 -46.0923 65.0927
lradius 80.5389
lwrist 16.904
lhand -23.9755 -60.4959
lfingers 7.12502
lthumb 2.50098 -30.5309
rfemur -96.5928 -1.47599 30.4978
rtibia 91.7867
rfoot -36.4045 -17.0632
rtoes -2.87066
lfemur -99.392 0.557687 -25.9262
ltibia 89.7802
lfoot -37.9294 -0.223529
ltoes -38.4162
183
root 8.77751 11.9777 23.6758 -135.651 -2.91098 -179.836
lowerback 40.6589 1.13015 1.27013
upperback 1.29361 1.04624 -0.296764
thorax -18.6233 -0.0611416 -1.40884
lowerneck -11.4116 -2.75473 -6.29927
upperneck -23.0617 -5.16686 8.12315
head -4.76997 -4.01186 3.79713
rclavicle -7.95139e-016 1.98785e-015
rhumerus 11.4819 60.3511 -15.5747
rradius 86.5386
rwrist -2.44372
rhand -15.5617 -50.2867
rfingers 7.12502
rthumb 10.623 -79.9982
lclavicle -7.95139e-016 1.98785e-015
lhumerus -48.6634 -46.6934 66.0532
lradius 80.3784
lwrist 16.222
lhand -23.1638 -60.1084
lfingers 7.12502
lthumb 3.28492 -30.154
rfemur -96.9722 -2.09269 31.2849
rtibia 91.985
rfoot -36.1461 -16.3709
rtoes -3.82455
lfemur -99.5884 0.670239 -26.1378
ltibia 89.8635
lfoot -37.8982 -0.387551
ltoes -38.1994
